<?xml version="1.0" encoding="utf-8"?>
<!-- Generator: Adobe Illustrator 28.2.0, SVG Export Plug-In . SVG Version: 6.00 Build 0)  -->
<svg version="1.1" id="R20_G20_B20" xmlns="http://www.w3.org/2000/svg" xmlns:xlink="http://www.w3.org/1999/xlink" x="0px"
	 y="0px" viewBox="0 0 396.9 170.1" style="enable-background:new 0 0 396.9 170.1;" xml:space="preserve">
<style type="text/css">
	.st0{fill:#FFF3F3;}
</style>
<path class="st0" d="M363,79.1c-2.7-0.1-25-0.1-45.4-0.1c3.8-7.9,8.1-16.9,9.7-20.4c2.7-5.8,2.5-4.1,5-6.5s2.8-8.3-2-10.8
	c-2.7-1.4-7.5-0.5-8.5,3.2s-0.8,5.1-3.4,10.5c-1.1,2.2-6,12.5-11.5,24.1c-8.3,0-15.5,0-19.7,0c2.3-4.5,3.9-7.6,4.3-8.5
	c1.8-4.2,11-24.5,14.1-27c3.1-2.5,2.1-8.4-2.4-10.4c-2.8-1.3-7-1-9.2,7.1S283.2,63.4,279,72.3c-0.7,1.4-1.9,3.7-3.4,6.7
	c-20.8,0-60.7,0.2-80.7,2.7c-24.3,3.1-33.2,2.1-32.4-2.2s6.9-19.9-0.9-23.9s-17.9-1.8-45.5,16.2c0,0,13.4-18.2,16-23
	s6.4-12.9,1.8-17.5s-13.3-1.8-18.8,1c-5.6,2.7-36.9,22.2-50.5,33.4S32.9,92.3,30.2,95.3c-2.8,3-2.7,7.3-1.2,8.8
	c3,3.1,7.1,3.2,12.1-3.1c5.5-7,42.6-37.5,57.7-46.7c15.1-9.2,26.9-16.6,24.9-12.4c-2,4.2-14.1,22-20.1,28.8S88.7,87,90.4,91.2
	c1.7,4.2,7,5.4,13.5,0.9c6.5-4.5,20.2-12.9,26.8-16.6c6.5-3.6,24-13.5,23-8.7s-2.8,9.6-2.6,13.7c0.2,4.1,2.2,9.6,6.9,12
	c4.7,2.4,12.5,3.2,25.8,2.1c13.3-1.1,49-4.8,81.5-4.5c1.5,0,3,0,4.6,0c-8.6,16.2-20.1,37.4-22.5,41.9c-3.6,6.7,1,10.2,3.9,10.3
	c2.9,0.1,6.1-1.3,7-5.4c0.5-2.7,13.7-28.2,23.3-46.8c6.6,0,13.5,0,20.2-0.1c-6.1,13-11.8,25.1-12.8,27.8c-2.2,5.9-3.3,9.1-5.3,11.9
	c-2,2.8-0.8,7.6,2.6,8.6c3.4,0.9,7.6-1.7,9.1-8.3c0.9-4.2,13.8-32.5,16.6-38.9c0.1-0.3,0.3-0.7,0.5-1.2c19.8-0.1,36.4-0.3,39.3-0.2
	c5.1,0.2,11,2.7,14.5-1.1C370,84.9,367.5,79.3,363,79.1L363,79.1z"/>
<circle class="st0" cx="220.9" cy="45.4" r="7.4"/>
</svg>
