<?xml version="1.0" encoding="utf-8"?>
<!-- Generator: Adobe Illustrator 28.2.0, SVG Export Plug-In . SVG Version: 6.00 Build 0)  -->
<svg version="1.1" id="Layer_1" xmlns="http://www.w3.org/2000/svg" xmlns:xlink="http://www.w3.org/1999/xlink" x="0px" y="0px"
	 viewBox="0 0 64 64" style="enable-background:new 0 0 64 64;" xml:space="preserve">
<style type="text/css">
	.st0{fill:#ECCFCF;}
</style>
<g>
	<path class="st0" d="M41.93,37.34c-1.93,2.18-3.95,4.58-6.07,7.18c-2.12,2.6-4.12,4.98-6.01,7.12c-1.89,2.14-3.25,3.22-4.08,3.22
		h-9.42c-0.76,0-1.49-0.1-2.21-0.29c-0.72-0.19-1.19-0.55-1.42-1.09c-0.23-0.53-0.15-1.32,0.23-2.35c0.38-1.03,1.29-2.47,2.72-4.31
		l28.03-35.25L43.58,8H18.61c-2.95,0-5.75,0.25-8.4,0.75c-2.65,0.5-4.62,0.94-5.9,1.32L0,28.55c0.91,0,2.14-1.01,3.69-3.04
		c1.55-2.03,3.18-4.25,4.88-6.66c1.7-2.41,3.33-4.63,4.88-6.66c1.55-2.03,2.74-3.04,3.57-3.04l10.33,0.12
		c0.83,0,1.59,0.06,2.27,0.17c0.68,0.12,1.14,0.44,1.36,0.98c0.23,0.54,0.13,1.3-0.28,2.3c-0.42,1-1.34,2.41-2.78,4.25L0.57,52.21
		v3.67h25.19c2.42,0,4.71-0.19,6.87-0.57c2.16-0.38,3.73-0.76,4.71-1.15l8.74-20.1C45.24,34.07,43.86,35.16,41.93,37.34z"/>
	<path class="st0" d="M59.97,46.07c-0.95-0.96-1.87-2.32-2.78-4.08c-0.83,1.76-1.65,3.18-2.44,4.25c-0.79,1.07-2.29,2.03-4.48,2.87
		c1.74,0.84,3.1,1.74,4.08,2.7c0.98,0.96,1.93,2.35,2.84,4.19c1.06-1.68,2.06-3,3.01-3.96c0.95-0.96,2.21-1.97,3.8-3.04
		C62.26,48,60.92,47.03,59.97,46.07z"/>
</g>
</svg>
